# xmcd
#
# Track frame offsets:
#	150
#	10872
#	24594
#	38997
#	50180
#	62515
#	76722
#	86437
#	96442
#	112402
#	128177
#	142837
#	154540
#	167167
#
# Disc length: 2349 seconds
#
# Revision: 0
# Processed by: cddbd v1.5.1PL0 Copyright (c) Steve Scherf et al.
# Submitted via: dBpowerAMP V4.0
#
DISCID=b2092b0e
DTITLE=Cauby Peixoto - Silvio Caldas - Frente a Frente
DYEAR=1900
DGENRE=Seresta
TTITLE0=Final de amor - Cauby Peixoto
TTITLE1=Conceição - Cauby Peixoto
TTITLE2=Blue Gardenia - Cauby Peixoto
TTITLE3=Foi a noite - Cauby Peixoto
TTITLE4=A pérola e o rubi - Cauby Peixoto
TTITLE5=Prece de amor - Cauby Peixoto
TTITLE6=Ci-ciu-ci - Cantava um rouxinol - Caubi Peixoto
TTITLE7=Noite - Caubi Peixoto
TTITLE8=Casinha Pequenina - Silvio Caldas
TTITLE9=Eu Sonhei que tu estavas tã linda - Silvio Caldas
TTITLE10=Serenata - Silvio Caldas
TTITLE11=Fita Amarela - Silvio Caldas
TTITLE12=Chão de Estrelas - Silvio Caldas
TTITLE13=Cabelos Brancos - Silvio Caldas
EXTD=
EXTT0=
EXTT1=
EXTT2=
EXTT3=
EXTT4=
EXTT5=
EXTT6=
EXTT7=
EXTT8=
EXTT9=
EXTT10=
EXTT11=
EXTT12=
EXTT13=
PLAYORDER=
